<svg width="30" height="30" viewBox="0 0 30 30" fill="none" xmlns="http://www.w3.org/2000/svg">
<g clip-path="url(#clip0_180076_51003)">
<path d="M28.9286 3.20898H1.07143C0.478795 3.20898 0 3.68778 0 4.28041V25.709C0 26.3016 0.478795 26.7804 1.07143 26.7804H28.9286C29.5212 26.7804 30 26.3016 30 25.709V4.28041C30 3.68778 29.5212 3.20898 28.9286 3.20898ZM27.5893 6.91881V24.3697H2.41071V6.91881L1.48661 6.19894L2.80246 4.50809L4.23549 5.62305H25.7679L27.2009 4.50809L28.5167 6.19894L27.5893 6.91881ZM25.7679 5.6197L15 13.9902L4.23214 5.6197L2.79911 4.50474L1.48326 6.19559L2.40737 6.91546L13.8449 15.8083C14.1738 16.0639 14.5785 16.2026 14.995 16.2026C15.4115 16.2026 15.8162 16.0639 16.1451 15.8083L27.5893 6.91881L28.5134 6.19894L27.1975 4.50809L25.7679 5.6197Z" fill="black" fill-opacity="0.85" style="fill:black;fill-opacity:0.85;"/>
</g>
<defs>
<clipPath id="clip0_180076_51003">
<rect width="30" height="30" fill="white" style="fill:white;fill-opacity:1;"/>
</clipPath>
</defs>
</svg>
