<svg width="30" height="25" viewBox="0 0 30 25" fill="none" xmlns="http://www.w3.org/2000/svg">
<path d="M15 25C12.7917 25 10.9896 24.651 9.59375 23.9531C8.19792 23.2552 7.5 22.3542 7.5 21.25C7.5 20.75 7.65104 20.2865 7.95312 19.8594C8.25521 19.4323 8.67708 19.0625 9.21875 18.75L11.1875 20.5938C11 20.6771 10.7969 20.7708 10.5781 20.875C10.3594 20.9792 10.1875 21.1042 10.0625 21.25C10.3333 21.5833 10.9583 21.875 11.9375 22.125C12.9167 22.375 13.9375 22.5 15 22.5C16.0625 22.5 17.0885 22.375 18.0781 22.125C19.0677 21.875 19.6979 21.5833 19.9688 21.25C19.8229 21.0833 19.6354 20.9479 19.4062 20.8438C19.1771 20.7396 18.9583 20.6458 18.75 20.5625L20.6875 18.6875C21.2708 19.0208 21.7188 19.401 22.0312 19.8281C22.3438 20.2552 22.5 20.7292 22.5 21.25C22.5 22.3542 21.8021 23.2552 20.4062 23.9531C19.0104 24.651 17.2083 25 15 25ZM15.0312 18.125C17.0938 16.6042 18.6458 15.0781 19.6875 13.5469C20.7292 12.0156 21.25 10.4792 21.25 8.9375C21.25 6.8125 20.5729 5.20833 19.2188 4.125C17.8646 3.04167 16.4583 2.5 15 2.5C13.5417 2.5 12.1354 3.04167 10.7812 4.125C9.42708 5.20833 8.75 6.8125 8.75 8.9375C8.75 10.3333 9.26042 11.7865 10.2812 13.2969C11.3021 14.8073 12.8854 16.4167 15.0312 18.125ZM15 21.25C12.0625 19.0833 9.86979 16.9792 8.42188 14.9375C6.97396 12.8958 6.25 10.8958 6.25 8.9375C6.25 7.45833 6.51562 6.16146 7.04688 5.04688C7.57812 3.93229 8.26042 3 9.09375 2.25C9.92708 1.5 10.8646 0.9375 11.9062 0.5625C12.9479 0.1875 13.9792 0 15 0C16.0208 0 17.0521 0.1875 18.0938 0.5625C19.1354 0.9375 20.0729 1.5 20.9062 2.25C21.7396 3 22.4219 3.93229 22.9531 5.04688C23.4844 6.16146 23.75 7.45833 23.75 8.9375C23.75 10.8958 23.026 12.8958 21.5781 14.9375C20.1302 16.9792 17.9375 19.0833 15 21.25ZM15 11.25C15.6875 11.25 16.276 11.0052 16.7656 10.5156C17.2552 10.026 17.5 9.4375 17.5 8.75C17.5 8.0625 17.2552 7.47396 16.7656 6.98438C16.276 6.49479 15.6875 6.25 15 6.25C14.3125 6.25 13.724 6.49479 13.2344 6.98438C12.7448 7.47396 12.5 8.0625 12.5 8.75C12.5 9.4375 12.7448 10.026 13.2344 10.5156C13.724 11.0052 14.3125 11.25 15 11.25Z" fill="#49454F" style="fill:#49454F;fill:color(display-p3 0.2863 0.2706 0.3098);fill-opacity:1;"/>
</svg>
