<svg width="30" height="30" viewBox="0 0 40 41" fill="none" xmlns="http://www.w3.org/2000/svg">
<path d="M30.0128 14.6481C30.0128 15.7517 29.5744 16.8101 28.7941 17.5904C28.0137 18.3708 26.9554 18.8092 25.8518 18.8092C24.7482 18.8092 23.6898 18.3708 22.9095 17.5904C22.1291 16.8101 21.6907 15.7517 21.6907 14.6481C21.6907 13.5445 22.1291 12.4861 22.9095 11.7058C23.6898 10.9254 24.7482 10.487 25.8518 10.487C26.9554 10.487 28.0137 10.9254 28.7941 11.7058C29.5744 12.4861 30.0128 13.5445 30.0128 14.6481ZM30.0028 26.0761C29.9114 28.7206 29.2512 31.3144 28.0671 33.6808C26.9761 35.744 25.338 37.4669 23.3324 38.6604C21.3268 39.8539 19.0312 40.4719 16.6975 40.4467H15.033V31.2924C15.0256 29.7497 14.4095 28.2722 13.3186 27.1813C12.2277 26.0905 10.7503 25.4743 9.20757 25.4669H0.0532615V23.8025C0.0280649 21.4687 0.646118 19.1731 1.83962 17.1675C3.03312 15.1619 4.75596 13.5237 6.81913 12.4327C9.18554 11.2487 11.7793 10.5884 14.4239 10.497C16.8487 7.36496 19.9627 4.83385 23.5241 3.10017C27.0855 1.3665 30.9986 0.476909 34.9595 0.500456C35.6186 0.496291 36.272 0.622263 36.8823 0.87115C37.4926 1.12004 38.0478 1.48694 38.516 1.95083C38.9842 2.41472 39.3563 2.96647 39.6108 3.57443C39.8653 4.1824 39.9974 4.83464 39.9993 5.49374C40.0275 9.46209 39.1403 13.3835 37.4065 16.9532C35.6728 20.5229 33.1393 23.6447 30.0028 26.0761ZM3.52191 22.138H7.28683C8.5229 19.385 9.97493 16.7342 11.6293 14.2104C10.4802 14.4777 9.36675 14.8799 8.31212 15.4087C7.04372 16.0785 5.94981 17.036 5.11798 18.2046C4.28616 19.3731 3.73954 20.7203 3.52191 22.138ZM26.2895 28.8706C23.7657 30.525 21.1149 31.9771 18.3619 33.2131V36.9781C19.7797 36.7604 21.1268 36.2138 22.2953 35.382C23.4638 34.5502 24.4214 33.4562 25.0911 32.1878C25.6199 31.1332 26.0222 30.0197 26.2895 28.8706ZM36.6705 5.44714C36.6584 5.01383 36.4777 4.60235 36.1668 4.30022C35.856 3.99809 35.4396 3.82914 35.0061 3.82931C26.4177 4.07398 20.6089 7.36456 15.0031 15.184C13.4388 17.4364 12.0632 19.814 10.8903 22.2928C12.7077 22.6313 14.3801 23.5121 15.6873 24.8193C16.9945 26.1265 17.8753 27.7989 18.2138 29.6163C20.6925 28.4434 23.0702 27.0678 25.3225 25.5035C33.1353 19.891 36.4258 14.0822 36.6705 5.44714ZM10.2428 30.2588C11.1729 31.1984 11.6946 32.467 11.6946 33.789C11.6946 35.1111 11.1729 36.3797 10.2428 37.3193C8.73321 38.8272 4.21431 39.7577 2.34017 40.0889L0 40.5L0.411112 38.1598C0.743996 36.2857 1.67274 31.7667 3.18071 30.2571C4.13234 29.3494 5.39702 28.8432 6.71211 28.8435C8.0272 28.8438 9.29164 29.3506 10.2428 30.2588ZM8.37536 33.789C8.37596 33.5704 8.33316 33.3538 8.24944 33.1518C8.16573 32.9498 8.04277 32.7664 7.88769 32.6123C7.57556 32.3002 7.15229 32.125 6.71094 32.125C6.2696 32.125 5.84632 32.3002 5.5342 32.6123C4.89962 33.7578 4.45394 34.9982 4.21431 36.2857C5.50225 36.045 6.74311 35.5988 7.88935 34.9641C8.04394 34.81 8.16648 34.6269 8.24989 34.4252C8.33331 34.2235 8.37595 34.0073 8.37536 33.789Z" fill="#367588" style="fill:#367588;fill:color(display-p3 0.2113 0.4571 0.5347);fill-opacity:1;"/>
</svg>
