<svg width="30" height="30" viewBox="0 0 30 30" fill="none" xmlns="http://www.w3.org/2000/svg"> <path d="M27.2246 5.85352L23.6588 2.29102C23.2235 1.85575 22.6409 1.61133 22.0248 1.61133C21.4088 1.61133 20.8262 1.8524 20.3909 2.29102L16.5505 6.12472C16.1152 6.55999 15.8708 7.14593 15.8708 7.762C15.8708 8.38142 16.1119 8.96066 16.5505 9.39928L19.5505 12.4026C18.8671 13.995 17.8851 15.4418 16.6576 16.6649C15.4289 17.9004 13.9925 18.8747 12.3987 19.5645L9.39872 16.5611C8.96345 16.1258 8.38086 15.8814 7.76479 15.8814C7.46091 15.8803 7.15987 15.9398 6.8793 16.0565C6.59874 16.1733 6.34428 16.3448 6.13086 16.5611L2.28711 20.3948C1.85184 20.8301 1.60742 21.416 1.60742 22.0321C1.60742 22.6515 1.84849 23.2307 2.28711 23.6694L5.84961 27.2319C6.59291 27.9752 7.61747 28.4004 8.66881 28.4004C8.88644 28.4004 9.09738 28.3837 9.31166 28.3468C13.7447 27.6169 18.1443 25.2564 21.6967 21.7073C25.2458 18.1515 27.603 13.752 28.3396 9.31557C28.5505 8.05664 28.1286 6.76088 27.2246 5.85352ZM25.9657 8.91713C25.3128 12.8647 23.19 16.8022 19.9925 19.9997C16.7949 23.1973 12.8608 25.32 8.91323 25.9729C8.41769 26.0566 7.90876 25.8892 7.54715 25.531L4.04827 22.0321L7.75809 18.3189L11.7693 22.3368L11.7994 22.3669L12.5226 22.0991C14.7154 21.2928 16.7067 20.0194 18.3585 18.3671C20.0103 16.7147 21.283 14.723 22.0885 12.5299L22.3563 11.8066L18.3117 7.76535L22.0215 4.05218L25.5204 7.55106C25.882 7.91267 26.0494 8.4216 25.9657 8.91713Z" fill="black" fill-opacity="0.85" style="fill:black;fill-opacity:0.85;"/> </svg>